# xmcd
#
# Track frame offsets: 
#        150
#        14389
#        32543
#        52259
#        71110
#        88589
#        103899
#        119626
#        135273
#        148910
#        167444
#        179967
#        196269
#        214910
#
# Disc length: 3187 seconds
#
# Revision: 0
# Processed by: cddbd v1.5.2PL0 Copyright (c) Steve Scherf et al.
# Submitted via: ExactAudioCopy v0.99pb4
#
DISCID=d80c710e
DTITLE=Example - Won't Go Quietly
DYEAR=2010
DGENRE=Rap
TTITLE0=From Space
TTITLE1=Won't Go Quietly (Album Version)
TTITLE2=Watch The Sun Come Up (Album Version)
TTITLE3=Time Machine
TTITLE4=Somthing In The Water
TTITLE5=Last Ones Standing
TTITLE6=Millionaires
TTITLE7=Two Lives
TTITLE8=Kickstarts
TTITLE9=Sick Note
TTITLE10=Dirty Face
TTITLE11=Hooligans (VIP Mix)
TTITLE12=See The Sea
TTITLE13=Won't Believe The Fools
EXTD=
EXTT0=
EXTT1=
EXTT2=
EXTT3=
EXTT4=
EXTT5=
EXTT6=
EXTT7=
EXTT8=
EXTT9=
EXTT10=
EXTT11=
EXTT12=
EXTT13=
PLAYORDER=
